<svg width="72" height="22" viewBox="0 0 72 22" fill="none" xmlns="http://www.w3.org/2000/svg">
<path d="M16.2689 9.91471H19.2476V10.9211C20.0392 10.4719 20.7956 10.1565 21.5163 9.9755C22.2377 9.79449 22.9435 9.70398 23.6345 9.70398C24.5402 9.70398 25.3784 9.83636 26.1498 10.1011C26.9211 10.3659 27.5884 10.7603 28.1524 11.2831C28.7157 11.8066 29.1568 12.4591 29.4756 13.2398C29.7944 14.0213 29.9538 14.9257 29.9538 15.9517V21.7881H26.9853V16.4346C26.9853 15.7842 26.8927 15.202 26.7083 14.6893C26.5239 14.176 26.2585 13.7437 25.9134 13.3911C25.5675 13.0392 25.1488 12.7704 24.6557 12.586C24.1627 12.4016 23.6108 12.3091 23.0002 12.3091C22.6781 12.3091 22.3478 12.3429 22.0094 12.4097C21.6703 12.4773 21.3387 12.5725 21.0131 12.6968C20.6876 12.8211 20.3742 12.9751 20.0723 13.1595C19.7703 13.3439 19.4954 13.5539 19.2469 13.7883V21.7881H16.2682V9.91404L16.2689 9.91471Z" fill="#FFFF"/>
<path d="M43.808 15.8821C43.808 15.0101 43.9674 14.1969 44.2862 13.4418C44.605 12.6873 45.071 12.0329 45.685 11.4797C46.299 10.9265 47.05 10.4922 47.9389 10.1768C48.8278 9.86135 49.8423 9.70398 50.9824 9.70398C51.4788 9.70398 51.9786 9.73437 52.4818 9.79449C52.985 9.8546 53.4693 9.94038 53.936 10.0511C54.4021 10.1619 54.8398 10.293 55.2491 10.4436C55.6584 10.5949 56.0136 10.7603 56.3156 10.942L54.937 13.1858C54.2866 12.8839 53.6706 12.6624 53.0904 12.5219C52.5102 12.3807 51.9212 12.3105 51.3242 12.3105C50.6399 12.3105 50.026 12.3996 49.4829 12.5773C48.9399 12.7549 48.4786 13.0034 48.099 13.3216C47.7201 13.6404 47.4317 14.0159 47.2338 14.4489C47.0359 14.8818 46.9372 15.3526 46.9372 15.8625C46.9372 16.3725 47.0426 16.8439 47.254 17.2762C47.4654 17.7092 47.764 18.0813 48.1496 18.3934C48.5353 18.7054 49.0014 18.9499 49.5485 19.1276C50.0949 19.3052 50.7041 19.3943 51.3748 19.3943C52.1124 19.3943 52.8087 19.2903 53.4626 19.0823C54.1164 18.8743 54.7256 18.596 55.2889 18.2468L56.6675 20.4912C56.3122 20.706 55.9265 20.9053 55.5105 21.0897C55.0944 21.2741 54.65 21.4335 54.1772 21.5679C53.7044 21.7023 53.2079 21.8077 52.6878 21.8847C52.1678 21.9617 51.6294 22.0002 51.0729 22.0002C49.9388 22.0002 48.923 21.8462 48.024 21.5375C47.125 21.2288 46.3638 20.8013 45.7397 20.2548C45.1156 19.7084 44.6381 19.0627 44.3058 18.3177C43.9735 17.5734 43.8073 16.7615 43.8073 15.8828" fill="#FFFF"/>
<path d="M60.9732 17.9456C60.9732 18.1401 61.0239 18.3265 61.1245 18.5041C61.2251 18.6818 61.3859 18.8398 61.6074 18.9769C61.829 19.1147 62.112 19.2248 62.4578 19.3092C62.8029 19.393 63.221 19.4349 63.7107 19.4349C64.2342 19.4349 64.7401 19.3883 65.2304 19.2944C65.7201 19.2005 66.176 19.0762 66.5988 18.9222C67.0217 18.7682 67.4039 18.5906 67.7457 18.3886C68.0882 18.1874 68.3732 17.98 68.6008 17.7645V17.2411C68.1442 17.1134 67.693 17.0067 67.2472 16.9189C66.8008 16.8318 66.3753 16.7629 65.9693 16.7129C65.5634 16.6629 65.1811 16.6278 64.8225 16.6075C64.4638 16.5873 64.1497 16.5771 63.8816 16.5771C63.325 16.5771 62.8617 16.6136 62.4929 16.6879C62.1241 16.7615 61.8256 16.8608 61.5973 16.9844C61.369 17.1087 61.2082 17.2546 61.1144 17.4221C61.0205 17.5903 60.9732 17.7645 60.9732 17.9456ZM57.8338 18.0462C57.8338 17.4761 57.9581 16.9561 58.206 16.4866C58.4538 16.0172 58.8267 15.6133 59.3231 15.2742C59.8196 14.9358 60.4383 14.6738 61.1799 14.4894C61.9208 14.305 62.7847 14.2125 63.7708 14.2125C64.5023 14.2125 65.2716 14.2665 66.0801 14.3732C66.8886 14.4806 67.7221 14.6447 68.5805 14.8663C68.5468 14.4907 68.4326 14.1436 68.2381 13.8248C68.0436 13.506 67.7734 13.2311 67.4283 12.9994C67.0824 12.7677 66.6671 12.5887 66.1807 12.4611C65.6944 12.3341 65.1426 12.2699 64.5253 12.2699C64.1896 12.2699 63.8208 12.2902 63.4182 12.33C63.0157 12.3706 62.5996 12.4307 62.1707 12.5111C61.7412 12.5914 61.317 12.6921 60.8975 12.813C60.4781 12.9339 60.0877 13.0784 59.725 13.2459L58.8193 10.8009C59.2684 10.6401 59.75 10.4922 60.2633 10.3578C60.7766 10.2241 61.3015 10.1079 61.8377 10.0106C62.3747 9.91336 62.911 9.83771 63.448 9.78436C63.9843 9.731 64.5043 9.70398 65.0075 9.70398C67.2277 9.70398 68.8784 10.2707 69.9584 11.4047C71.0384 12.5388 71.5788 14.276 71.5788 16.617V21.7887H68.6001V20.6716C68.2915 20.8526 67.9544 21.0235 67.589 21.1849C67.2236 21.3457 66.8258 21.4868 66.3969 21.6077C65.9673 21.7286 65.5067 21.8239 65.0129 21.8948C64.5199 21.965 63.9984 22.0002 63.4486 22.0002C62.5226 22.0002 61.7094 21.8995 61.0083 21.6982C60.3072 21.497 59.7216 21.2187 59.2522 20.8627C58.7828 20.5075 58.4289 20.0894 58.1904 19.6098C57.952 19.1303 57.8331 18.6088 57.8331 18.0448" fill="#FFFF"/>
<mask id="mask0_75_2508" style="mask-type:luminance" maskUnits="userSpaceOnUse" x="32" y="8" width="12" height="14">
<path d="M43.2606 8.97479H32.1343V21.866H43.2606V8.97479Z" fill="#FFFF"/>
</mask>
<g mask="url(#mask0_75_2508)">
<path d="M42.59 21.7892V19.0983H39.3088V9.51397H39.2993L39.3088 9.49438C39.3047 9.50114 39.3006 9.50789 39.2966 9.51465L33.1394 11.3721L33.2265 14.1062L36.2403 13.4213V19.0983H32.8044V21.7892H42.5893H42.59Z" fill="#FFFF"/>
</g>
<path d="M13.4057 21.7885V9.9043H10.4271V17.9041C10.2258 18.1189 9.98601 18.3168 9.70773 18.4978C9.42945 18.6788 9.12889 18.8348 8.80738 18.9658C8.4852 19.0969 8.14817 19.1989 7.79627 19.2725C7.44437 19.3468 7.09652 19.3833 6.75476 19.3833C6.03002 19.3833 5.42484 19.2941 4.93853 19.1165C4.45222 18.9388 4.06318 18.6889 3.77139 18.3667C3.47961 18.0452 3.2736 17.6575 3.1527 17.2043C3.0318 16.7518 2.97168 16.2499 2.97168 15.7001V14.4823H0.00250244V16.123C0.00250244 17.0557 0.11665 17.8858 0.344945 18.6133C0.572564 19.3414 0.933918 19.9547 1.42698 20.4545C1.92004 20.9543 2.55359 21.3346 3.32899 21.5966C4.1037 21.858 5.03444 21.9891 6.12121 21.9891C6.78515 21.9891 7.48625 21.8952 8.22449 21.7074C8.96206 21.5196 9.69692 21.2076 10.4284 20.7713V21.7878H13.4071L13.4057 21.7885Z" fill="#FFFF"/>
<path d="M0.00250244 9.9043V14.4823L2.97101 11.655V9.9043H0.00250244Z" fill="#FFFF"/>
<path d="M3.00048 0.0512695V0.918519H1.22005V1.85534H2.55267V2.6976H1.22005V4.49559H0.155579V0.0512695H3.00116H3.00048Z" fill="#FFFF"/>
<path d="M10.6368 3.71006H9.00567L8.74428 4.49491H7.62982L9.211 0.0512695H10.4437L12.0255 4.49559H10.8989L10.6375 3.71074L10.6368 3.71006ZM10.3626 2.87456L9.82091 1.24745L9.2853 2.87456H10.3626Z" fill="#FFFF"/>
<path d="M16.9687 1.09217C17.1558 0.748374 17.4158 0.480229 17.7501 0.288408C18.0845 0.0965862 18.4634 0 18.8862 0C19.4049 0 19.8494 0.139138 20.2188 0.41809C20.5883 0.696366 20.8355 1.07663 20.9598 1.55754H19.7892C19.7021 1.37179 19.5785 1.23063 19.4184 1.13337C19.2584 1.03611 19.0773 0.987476 18.874 0.987476C18.5458 0.987476 18.2803 1.10365 18.077 1.336C17.8737 1.56834 17.7717 1.87837 17.7717 2.26674C17.7717 2.65511 17.8731 2.96513 18.077 3.19748C18.2803 3.42982 18.5458 3.546 18.874 3.546C19.0773 3.546 19.259 3.49737 19.4184 3.40011C19.5785 3.30284 19.7014 3.16168 19.7892 2.97594H20.9598C20.8355 3.45684 20.5883 3.83576 20.2188 4.11201C19.8494 4.38826 19.4049 4.52672 18.8862 4.52672C18.4627 4.52672 18.0838 4.43081 17.7501 4.23899C17.4158 4.04717 17.1558 3.7797 16.9687 3.43793C16.7816 3.09616 16.6884 2.70577 16.6884 2.26674C16.6884 1.82771 16.7816 1.43664 16.9687 1.09217Z" fill="#FFFF"/>
<path d="M27.0164 0.0512695V2.70975C27.0164 2.97587 27.0805 3.18053 27.2096 3.32372C27.3379 3.46691 27.527 3.53918 27.7762 3.53918C28.0255 3.53918 28.2159 3.46759 28.349 3.32372C28.4821 3.18053 28.5483 2.9752 28.5483 2.70975V0.0512695H29.6127V2.70368C29.6127 3.10015 29.5296 3.43584 29.3635 3.71006C29.1973 3.98429 28.9744 4.19097 28.6941 4.33078C28.4138 4.46992 28.1018 4.53949 27.7573 4.53949C27.4129 4.53949 27.1049 4.47127 26.8327 4.33348C26.5605 4.19637 26.3464 3.98969 26.1883 3.71277C26.0303 3.43652 25.9519 3.09948 25.9519 2.703V0.0512695H27.0164Z" fill="#FFFF"/>
<path d="M35.7767 3.65941H37.1715V4.49491H34.7122V0.0512695H35.7767V3.65941Z" fill="#FFFF"/>
<path d="M44.8915 0.329546C45.236 0.515289 45.5028 0.776004 45.6919 1.11169C45.881 1.44738 45.9749 1.8344 45.9749 2.27343C45.9749 2.71246 45.8804 3.09407 45.6919 3.43179C45.5028 3.7695 45.2353 4.03089 44.8888 4.21664C44.5423 4.40238 44.1405 4.49491 43.6839 4.49491H42.0466V0.0512695H43.6839C44.1445 0.0512695 44.5471 0.143803 44.8915 0.329546ZM44.5552 3.2224C44.7794 2.99884 44.8915 2.68206 44.8915 2.27275C44.8915 1.86344 44.7794 1.54464 44.5552 1.31702C44.3309 1.0894 44.0175 0.975255 43.615 0.975255H43.1104V3.55809H43.615C44.0175 3.55809 44.3309 3.44665 44.5552 3.2224Z" fill="#FFFF"/>
<path d="M53.6462 3.71006H52.015L51.7536 4.49491H50.6392L52.2203 0.0512695H53.453L55.0348 4.49559H53.9082L53.6468 3.71074L53.6462 3.71006ZM53.3719 2.87456L52.8302 1.24745L52.2946 2.87456H53.3719Z" fill="#FFFF"/>
<path d="M62.7197 0.329546C63.0641 0.515289 63.3309 0.776004 63.52 1.11169C63.7092 1.44738 63.803 1.8344 63.803 2.27343C63.803 2.71246 63.7085 3.09407 63.52 3.43179C63.3309 3.7695 63.0635 4.03089 62.717 4.21664C62.3705 4.40238 61.9686 4.49491 61.512 4.49491H59.8748V0.0512695H61.512C61.9726 0.0512695 62.3752 0.143803 62.7197 0.329546ZM62.3833 3.2224C62.6075 2.99884 62.7197 2.68206 62.7197 2.27275C62.7197 1.86344 62.6075 1.54464 62.3833 1.31702C62.1591 1.0894 61.8457 0.975255 61.4431 0.975255H60.9386V3.55809H61.4431C61.8457 3.55809 62.1591 3.44665 62.3833 3.2224Z" fill="#FFFF"/>
<path d="M69.8214 0.918519V1.81751H71.2472V2.65302H69.8214V3.62766H71.4336V4.49491H68.7562V0.0512695H71.4336V0.918519H69.8214Z" fill="#FFFF"/>
</svg>
